# xmcd
# Track frame offsets:
# 150
# 12254
# 30400
# 51229
# 64344
# 79644
# 104881
# 123264
# 139506
# 153383
# 171377
# 187031
# 207965
#
# Disc length: 2992 seconds
# Revision: 0
# Processed by: cddbd v1.5.1PL0 Copyright (c) Steve Scherf et al.
# Submitted via: VisiTrax 2.9.9.209 - For more info visit www.synapsa.com
#
DISCID=b40bae0d
DTITLE=Delbert McClinton - Nothing Personal
DYEAR=1900
DGENRE=
TTITLE0=Livin' It Down - Richard Dodd
TTITLE1=Gotta Get It Worked On - Ricky Fataar
TTITLE2=When Rita Leaves - John Cowan
TTITLE3=Squeeze Me In - George Hawkins
TTITLE4=Birmingham Tonight - Iris DeMent
TTITLE5=Baggage Claim - George Hawkins
TTITLE6=All Night Long - Ricky Fataar
TTITLE7=Don't Leave Home Without It - Ricky Fataar
TTITLE8=Desperation - George Hawkins
TTITLE9=Nothin' Lasts Forever - Ricky Fataar
TTITLE10=Read Me My Rights - George Hawkins
TTITLE11=All There Is of Me - Ricky Fataar
TTITLE12=Watchin' the Rain - George Hawkins
EXTD=
EXTT0=
EXTT1=
EXTT2=
EXTT3=
EXTT4=
EXTT5=
EXTT6=
EXTT7=
EXTT8=
EXTT9=
EXTT10=
EXTT11=
EXTT12=
PLAYORDER=
